<?xml version="1.0" encoding="UTF-8"?>
<svg id="finals" xmlns="http://www.w3.org/2000/svg" viewBox="0 0 1329.34 300">
  <defs>
    <style>
      .cls-1 {
        fill: #fff;
        stroke-width: 0px;
      }
    </style>
  </defs>
  <g>
    <rect class="cls-1" x="507.77" y="62.46" width="6.47" height="175.09"/>
    <path class="cls-1" d="M438.54,200.16v-124.44h-31.72v116.62c-3.38.42-12.9.63-19.25.63-6.98,0-17.34-.21-19.67-.63v-116.62h-41.24s9.94,6.98,9.94,17.55v125.71l1.9.64c.64.21,17.34,4.65,49.07,4.65,28.76,0,54.99-5.71,55.2-5.92l5.5-1.06s-9.73-2.33-9.73-17.13ZM425.64,209.47s-9.73,2.75-38.28,2.75c-22.42,0-38.7-2.75-38.7-2.75v-121.7h6.77v115.56s15.01,2.11,31.93,2.11c24.32,0,31.51-2.11,31.51-2.11v-115.56h6.77v121.7Z"/>
    <path class="cls-1" d="M142.47,70.74c-33.2,0-59.43,6.13-59.64,6.13l-5.29,1.27,4.44,3.17c4.86,3.6,6.77,7.19,6.98,12.9,0,0-.21,107.64,0,113.35,0,5.29-2.12,8.46-6.98,12.27l-6.13,4.44h57.74l-6.13-4.44s-6.77-5.71-6.56-12.27v-38.27h60.91c2.11.21,5.29,1.48,5.29,1.48l4.02,2.54v-39.34l-3.81,2.33s-2.11,1.27-5.08,1.27h-61.33v-34.68s12.48-1.69,19.24-1.69,24.74,1.9,33.2,5.08c9.73,3.81,17.77,11,17.77,11v-41.24l-2.11-.42c-.21,0-20.09-4.87-46.53-4.87ZM180.97,96.54s-5.5-2.75-14.59-4.23c-9.31-1.69-13.11-2.11-26.01-2.33-17.77-.42-31.72,2.12-31.72,2.12v57.52h70.43v7.4h-70.43v56.25h-7.61l.21-127.52s15.02-3.38,38.91-3.38c12.9,0,26.01.85,40.82,3.38v10.79Z"/>
    <path class="cls-1" d="M314.94,201.22v-34.26c0-7.19-4.86-9.31-4.86-9.31l-65.77-40.61v-14.38c4.02-.63,7.82-1.27,24.53-.63,10.79.42,18.4,1.69,25.38,4.02,11.21,3.6,15.44,6.98,15.44,6.98l5.29,4.44-.21-41.66-2.54-.42c-.85-.21-24.32-4.65-49.28-4.65-31.51,0-54.35,5.71-55.41,5.92l-6.34,1.48,5.29,4.02c4.23,3.17,6.13,6.56,6.34,11.63l-.21,29.4c0,9.31,6.98,13.11,6.98,13.11l63.66,39.76v16.28c-3.81.63-9.09,1.27-25.59.63-11-.42-17.13-1.9-24.32-4.02-11.63-3.17-20.73-11.42-20.73-11.42v41.45l2.54.64c1.06.21,23.26,4.65,48.43,4.65,31.51,0,55.41-5.71,56.47-5.92l6.56-1.48-5.5-4.02c-4.23-3.17-5.92-6.56-6.13-11.63ZM302.67,209.25s-14.38,3.17-36.8,3.17c-12.48,0-26.86-.85-40.82-3.17v-10.15s5.5,2.54,13.96,4.02c8.88,1.48,14.38,1.9,26.44,2.11,16.92.42,30.03-1.9,30.03-1.9v-27.7c0-6.13-6.13-9.52-6.13-9.52l-58.37-36.59s-5.92-3.6-5.92-10.36v-33.42s13.11-3.17,35.53-3.17c12.27,0,27.7.85,41.87,3.17v10.15s-5.29-2.54-13.75-4.02c-8.88-1.69-15.65-1.9-27.92-2.12-16.71-.42-28.76,1.9-28.76,1.9v25.17c0,5.71,5.71,8.88,5.71,8.88l59.43,36.8s5.5,2.96,5.5,9.52v37.22Z"/>
  </g>
  <g>
    <path class="cls-1" d="M600,161.42h-16.46v-85.66h38.26v14h-21.8v23.32h20.39v14h-20.39v34.34Z"/>
    <path class="cls-1" d="M633.22,161.42v-85.66h16.46v71.37h22.79v14.3h-39.26Z"/>
    <path class="cls-1" d="M740.21,118.48c0,6.8-.62,12.92-1.88,18.37-1.25,5.45-3.13,10.09-5.62,13.92-2.5,3.83-5.65,6.76-9.46,8.79s-8.27,3.05-13.39,3.05-9.65-1.03-13.48-3.08c-3.83-2.05-6.99-5.01-9.49-8.88-2.5-3.87-4.38-8.52-5.62-13.95-1.25-5.43-1.88-11.54-1.88-18.34,0-9.61,1.15-17.68,3.46-24.2,2.3-6.52,5.72-11.44,10.25-14.77,4.53-3.32,10.12-4.98,16.76-4.98s12.61,1.78,17.08,5.33c4.47,3.56,7.8,8.62,9.99,15.21,2.19,6.58,3.28,14.42,3.28,23.53ZM696.44,118.48c0,6.56.51,12.04,1.52,16.44,1.02,4.39,2.52,7.7,4.51,9.9,1.99,2.21,4.45,3.31,7.38,3.31s5.44-1.07,7.41-3.22c1.97-2.15,3.46-5.41,4.45-9.79,1-4.37,1.49-9.92,1.49-16.64,0-10.04-1.11-17.51-3.34-22.41-2.23-4.9-5.57-7.35-10.02-7.35-2.93,0-5.39,1.11-7.38,3.34s-3.5,5.55-4.51,9.96c-1.02,4.41-1.52,9.9-1.52,16.46Z"/>
    <path class="cls-1" d="M772.97,75.76c6.33,0,11.58.92,15.76,2.75,4.18,1.84,7.29,4.59,9.35,8.26,2.05,3.67,3.08,8.28,3.08,13.83,0,3.52-.43,6.71-1.29,9.58-.86,2.87-2.2,5.43-4.01,7.68-1.82,2.25-4.13,4.21-6.94,5.89l17.64,37.68h-18.11l-14-33.57h-4.92v33.57h-16.46v-85.66h19.92ZM772.85,89.65h-3.34v25.2h3.69c3.67,0,6.45-1.11,8.35-3.34,1.89-2.23,2.84-5.59,2.84-10.08,0-4.02-.95-6.99-2.84-8.91-1.9-1.91-4.8-2.87-8.7-2.87Z"/>
    <path class="cls-1" d="M814.51,161.42v-85.66h16.46v85.66h-16.46Z"/>
    <path class="cls-1" d="M900.58,117.01c0,9.57-1.32,17.66-3.96,24.26-2.64,6.6-6.48,11.61-11.54,15.03-5.06,3.42-11.26,5.13-18.6,5.13h-20.16v-85.66h21.39c7.03,0,13,1.58,17.9,4.75,4.9,3.16,8.62,7.81,11.16,13.95,2.54,6.13,3.81,13.65,3.81,22.56ZM883.65,117.77c0-6.41-.61-11.66-1.82-15.76-1.21-4.1-3.02-7.13-5.42-9.08-2.4-1.95-5.38-2.93-8.94-2.93h-4.69v57.01h3.57c5.94,0,10.3-2.4,13.1-7.21,2.79-4.8,4.19-12.15,4.19-22.03Z"/>
    <path class="cls-1" d="M951.33,161.42l-4.45-20.62h-19.04l-4.45,20.62h-17.64l20.74-85.66h21.27l21.09,85.66h-17.52ZM944.35,126.5l-4.63-22.68c-.31-1.88-.62-3.71-.91-5.51-.29-1.8-.57-3.52-.82-5.19-.25-1.66-.48-3.21-.67-4.66-.12,1.37-.29,2.87-.53,4.51s-.51,3.36-.82,5.16c-.31,1.8-.67,3.61-1.05,5.45l-4.57,22.91h14Z"/>
    <path class="cls-1" d="M1039.33,136.35c0,5.16-1.04,9.71-3.11,13.65-2.07,3.95-4.99,7.03-8.76,9.26-3.77,2.23-8.21,3.34-13.33,3.34-2.38,0-4.69-.15-6.91-.44s-4.42-.78-6.56-1.46c-2.15-.68-4.3-1.59-6.45-2.72v-16.82c3.12,2.03,6.37,3.57,9.73,4.63,3.36,1.05,6.46,1.58,9.32,1.58,2.11,0,3.86-.41,5.24-1.23,1.39-.82,2.42-1.93,3.11-3.34.68-1.41,1.03-2.99,1.03-4.75,0-1.88-.29-3.52-.88-4.95-.59-1.43-1.71-2.85-3.37-4.28-1.66-1.43-4.09-3.08-7.29-4.95-2.5-1.48-4.76-3.01-6.77-4.57-2.01-1.56-3.73-3.29-5.16-5.19-1.43-1.89-2.51-4.09-3.25-6.59-.74-2.5-1.11-5.45-1.11-8.85-.04-4.84.91-9.08,2.84-12.71s4.73-6.45,8.38-8.47c3.65-2.01,8.04-3,13.15-2.96,3.48,0,6.88.47,10.22,1.41s6.55,2.27,9.64,3.98l-4.51,14.53c-2.77-1.68-5.39-2.92-7.85-3.72-2.46-.8-4.77-1.2-6.91-1.2-1.88,0-3.45.36-4.72,1.08-1.27.72-2.23,1.71-2.87,2.96-.64,1.25-.97,2.68-.97,4.28,0,2.03.31,3.75.94,5.16.62,1.41,1.81,2.78,3.54,4.13,1.74,1.35,4.25,2.96,7.53,4.83,3.55,2.07,6.52,4.27,8.91,6.59,2.38,2.32,4.18,4.92,5.39,7.79,1.21,2.87,1.82,6.2,1.82,9.99Z"/>
    <path class="cls-1" d="M1078.58,161.42h-16.23v-71.43h-15.94v-14.24h47.99v14.24h-15.82v71.43Z"/>
    <path class="cls-1" d="M1140,161.42l-4.45-20.62h-19.04l-4.45,20.62h-17.64l20.74-85.66h21.27l21.09,85.66h-17.52ZM1133.03,126.5l-4.63-22.68c-.31-1.88-.62-3.71-.91-5.51-.29-1.8-.57-3.52-.82-5.19-.25-1.66-.48-3.21-.67-4.66-.12,1.37-.29,2.87-.53,4.51s-.51,3.36-.82,5.16c-.31,1.8-.67,3.61-1.05,5.45l-4.57,22.91h14Z"/>
    <path class="cls-1" d="M1189.58,161.42h-16.23v-71.43h-15.94v-14.24h47.99v14.24h-15.82v71.43Z"/>
    <path class="cls-1" d="M1253.39,161.42h-38.5v-85.66h38.5v14h-22.03v20.16h20.51v14.06h-20.51v23.14h22.03v14.3Z"/>
  </g>
  <g>
    <path class="cls-1" d="M614.27,185.82v24.94c0,2.69-.57,5.1-1.7,7.22-1.13,2.13-2.85,3.81-5.14,5.05-2.29,1.24-5.18,1.86-8.66,1.86-4.96,0-8.73-1.3-11.31-3.89-2.58-2.59-3.88-6.04-3.88-10.35v-24.84h6.51v24.21c0,3.23.75,5.6,2.24,7.11s3.72,2.25,6.67,2.25c2.04,0,3.71-.36,5-1.08,1.29-.72,2.25-1.78,2.86-3.18s.92-3.1.92-5.1v-24.21h6.49Z"/>
    <path class="cls-1" d="M697.31,224.37h-8.04l-18.67-30.61h-.24c.07,1.05.13,2.17.18,3.34.05,1.17.11,2.37.16,3.6.05,1.23.1,2.48.13,3.74v19.93h-5.91v-38.55h7.99l18.64,30.4h.18c-.04-.93-.08-1.98-.13-3.14s-.1-2.36-.15-3.6-.08-2.43-.12-3.57v-20.09h5.96v38.55Z"/>
    <path class="cls-1" d="M748.26,224.37v-38.55h6.51v38.55h-6.51Z"/>
    <path class="cls-1" d="M834.49,185.82l-13.42,38.55h-6.93l-13.42-38.55h6.64l8.04,24.05c.25.67.51,1.5.79,2.5s.55,2.03.82,3.07c.26,1.05.47,1.96.61,2.76.14-.79.33-1.71.58-2.76.25-1.05.51-2.07.8-3.07.29-1,.55-1.85.78-2.53l8.04-24.02h6.67Z"/>
    <path class="cls-1" d="M902.29,224.37h-21.88v-38.55h21.88v5.46h-15.37v10.28h14.4v5.43h-14.4v11.89h15.37v5.48Z"/>
    <path class="cls-1" d="M962.28,185.82c3.36,0,6.13.41,8.31,1.23s3.8,2.05,4.87,3.7c1.06,1.65,1.59,3.75,1.59,6.3,0,1.88-.35,3.49-1.04,4.84s-1.61,2.46-2.75,3.34c-1.14.88-2.36,1.58-3.67,2.11l11,17.03h-7.33l-9.31-15.37h-6.01v15.37h-6.51v-38.55h10.86ZM961.86,191.25h-3.93v12.39h4.22c2.9,0,5-.54,6.31-1.62s1.96-2.67,1.96-4.76-.7-3.73-2.1-4.64c-1.4-.91-3.56-1.37-6.47-1.37Z"/>
    <path class="cls-1" d="M1049.2,213.88c0,2.29-.56,4.25-1.67,5.91-1.12,1.65-2.71,2.92-4.8,3.8-2.08.88-4.57,1.32-7.47,1.32-1.41,0-2.75-.08-4.03-.24s-2.49-.39-3.63-.7c-1.13-.31-2.17-.69-3.12-1.15v-6.12c1.6.7,3.37,1.34,5.3,1.9,1.93.56,3.9.84,5.91.84,1.6,0,2.93-.21,3.98-.63s1.84-1.02,2.35-1.81c.51-.78.76-1.7.76-2.76,0-1.12-.31-2.07-.92-2.85-.62-.77-1.54-1.49-2.77-2.15s-2.76-1.37-4.59-2.12c-1.23-.49-2.42-1.06-3.56-1.7-1.14-.64-2.16-1.4-3.06-2.28-.9-.88-1.61-1.92-2.14-3.14s-.79-2.64-.79-4.27c0-2.2.52-4.08,1.57-5.64,1.04-1.56,2.53-2.76,4.44-3.59,1.92-.83,4.15-1.24,6.7-1.24,2.04,0,3.95.22,5.74.65,1.78.43,3.55,1.03,5.29,1.81l-2.06,5.22c-1.6-.65-3.14-1.17-4.61-1.57s-2.99-.59-4.54-.59c-1.3,0-2.4.2-3.31.59-.91.4-1.6.95-2.07,1.67-.47.72-.71,1.57-.71,2.56,0,1.11.28,2.03.83,2.78.55.75,1.41,1.44,2.57,2.07s2.65,1.33,4.46,2.08c2.11.9,3.9,1.83,5.38,2.79,1.48.97,2.61,2.12,3.4,3.47s1.19,3.04,1.19,5.08Z"/>
    <path class="cls-1" d="M1097.46,224.37v-38.55h6.51v38.55h-6.51Z"/>
    <path class="cls-1" d="M1168.45,224.37h-6.51v-33.04h-11.21v-5.51h28.92v5.51h-11.21v33.04Z"/>
    <path class="cls-1" d="M1237.43,203.25l9.04-17.43h7.01l-12.81,23.57v14.98h-6.49v-14.74l-12.81-23.81h7.07l8.99,17.43Z"/>
  </g>
</svg>